
	<svg xmlns="http://www.w3.org/2000/svg" xmlns:xlink="http://www.w3.org/1999/xlink" version="1.1" width="128" height="128" viewBox="0 0 100 100">


		<defs>
			<g id="background">
<path fill="url(#background-gradient)" stroke="none" d=" M 85.35 85.35 Q 100 70.6 100 50 100 29.3 85.35 14.65 70.7 0 50 0 29.3 0 14.65 14.65 0 29.3 0 50 0 70.6 14.65 85.35 29.3 100 50 100 70.7 100 85.35 85.35 Z"/>
</g><g id="middle-1">
<path fill="#000000" fill-opacity="0.10196078431372549" stroke="none" d=" M 0 50 Q 0 70.7 14.75 85.4 29.3 100 50 100 61 100 71.15 95.25 L 0.1 47.95 0 50 M 98 63.8 L 99.2 59.1 22.6 8.15 18.6 11.05 98 63.8 Z"/>
</g><mask id="mask">
<path fill="#FFFFFF" stroke="none" d=" M 85.35 85.35 Q 100 70.6 100 50 100 29.3 85.35 14.65 70.7 0 50 0 29.3 0 14.65 14.65 0 29.3 0 50 0 70.6 14.65 85.35 29.3 100 50 100 70.7 100 85.35 85.35 Z"/>
</mask>
			
	<linearGradient id="background-gradient" x1="0" y1="0" y2="1" x2="0" >
		<stop stop-color="#09f6d2" offset="0%"/>
		<stop stop-color="#f28ad3" offset="100%"/>
	</linearGradient>

			
			
			<g transform="scale(0.30768473807454033) translate(12.503997802734375 25.007999420166016)" id="picture"><path d="M0 0h300v300H0z M86.716 102.544h53.568c1.072 0 1.786-1.926 1.786-4.814s-.714-4.814-1.786-4.814H86.716c-1.072 0-1.786 1.925-1.786 4.814s.714 4.814 1.786 4.814zm53.568 19.257H86.716c-1.072 0-1.786 1.925-1.786 4.814s.714 4.814 1.786 4.814h53.568c1.072 0 1.786-1.926 1.786-4.814s-.714-4.814-1.786-4.814zm0 28.885H86.716c-1.072 0-1.786 1.925-1.786 4.814s.714 4.814 1.786 4.814h53.568c1.072 0 1.786-1.925 1.786-4.814s-.714-4.814-1.786-4.814zm0 28.885H86.716c-1.072 0-1.786 1.926-1.786 4.814s.714 4.814 1.786 4.814h53.568c1.072 0 1.786-1.925 1.786-4.814s-.714-4.814-1.786-4.814zm0 28.885H86.716c-1.072 0-1.786 1.926-1.786 4.814s.714 4.814 1.786 4.814h53.568c1.072 0 1.786-1.925 1.786-4.814s-.714-4.814-1.786-4.814zM222 139h-44c-.333 0-.333.333-.667.333L150.667 166s-.334.333-.334.667v70.666c0 1 .667 1.667 1.667 1.667h70c1 0 1.667-.667 1.667-1.667v-96.666c0-1-.667-1.667-1.667-1.667zm-45 5.667v21h-21l21-21zM208.667 229h-43.334c-1 0-1.666-.667-1.666-1.667s.666-1.666 1.666-1.666h43.334c1 0 1.666.666 1.666 1.666s-.666 1.667-1.666 1.667zm0-13.333h-43.334c-1 0-1.666-.667-1.666-1.667s.666-1.667 1.666-1.667h43.334c1 0 1.666.667 1.666 1.667s-.666 1.667-1.666 1.667zm0-13.334h-43.334c-1 0-1.666-.666-1.666-1.666s.666-1.667 1.666-1.667h43.334c1 0 1.666.667 1.666 1.667s-.666 1.666-1.666 1.666zm0-13.333h-43.334c-1 0-1.666-.667-1.666-1.667s.666-1.666 1.666-1.666h43.334c1 0 1.666.666 1.666 1.666s-.666 1.667-1.666 1.667zm0-13.333h-43.334c-1 0-1.666-.667-1.666-1.667s.666-1.667 1.666-1.667h43.334c1 0 1.666.667 1.666 1.667s-.666 1.667-1.666 1.667zm0-13.334h-20c-1 0-1.667-.666-1.667-1.666s.667-1.667 1.667-1.667h20c1 0 1.666.667 1.666 1.667s-.666 1.666-1.666 1.666z M144.44 16.047h91.632c1.833 0 3.054-1.925 3.054-4.814s-1.221-4.813-3.054-4.813h-91.633c-1.832 0-3.054 1.925-3.054 4.813s1.222 4.814 3.054 4.814zm91.632 19.256h-91.633c-1.832 0-3.054 1.925-3.054 4.814s1.222 4.814 3.054 4.814h91.633c1.833 0 3.054-1.926 3.054-4.814s-1.221-4.814-3.054-4.814zm0 28.883h-91.633c-1.832 0-3.054 1.926-3.054 4.814s1.222 4.814 3.054 4.814h91.633c1.833 0 3.054-1.926 3.054-4.814s-1.221-4.814-3.054-4.814zm0 28.883h-91.633c-1.832 0-3.054 1.926-3.054 4.814s1.222 4.814 3.054 4.814h91.633c1.833 0 3.054-1.925 3.054-4.814s-1.221-4.814-3.054-4.814zm0 28.884h-91.633c-1.832 0-3.054 1.925-3.054 4.814s1.222 4.813 3.054 4.813h91.633c1.833 0 3.054-1.925 3.054-4.813s-1.221-4.814-3.054-4.814z M111.498-25.008h160.007V74.996H111.498z"/></g>
			
	<linearGradient id="picture-gradient" x1="0" y1="0" y2="1" x2="0" >
		<stop stop-color="#ffffff" offset="0%"/>
		<stop stop-color="#e5eff9" offset="100%"/>
	</linearGradient>

		</defs>

		

			<use xlink:href="#background" fill="url(#background-gradient)" />

		<use xlink:href="#middle-1" />

			<g mask="url(#mask)">
				<g transform="
				        translate(
                                50 50
)
                            translate(-5 -5)  scale(1.2600000000000007)  
                            translate(
                                -50 -50
)">
						<use xlink:href="#picture" fill="url(#picture-gradient)"  />
				</g>
			</g>

		



	</svg>
